<?xml version="1.0" encoding="utf-8"?>
<!-- Generator: Adobe Illustrator 15.0.0, SVG Export Plug-In  -->
<!DOCTYPE svg PUBLIC "-//W3C//DTD SVG 1.1//EN" "http://www.w3.org/Graphics/SVG/1.1/DTD/svg11.dtd" [
	<!ENTITY ns_flows "http://ns.adobe.com/Flows/1.0/">
]>
<svg version="1.1"
	 xmlns="http://www.w3.org/2000/svg" xmlns:xlink="http://www.w3.org/1999/xlink" xmlns:a="http://ns.adobe.com/AdobeSVGViewerExtensions/3.0/"
	 x="0px" y="0px" width="60px" height="60px" viewBox="-0.705 -0.604 60 60"
	 overflow="visible" enable-background="new -0.705 -0.604 60 60" xml:space="preserve">
<defs>
</defs>
<path fill="#E50012" stroke="#231815" stroke-linecap="round" stroke-linejoin="round" d="M23.989,47.259l3.074,0.582l0.665,10.342
	H16.346C16.346,58.183,18.836,51.995,23.989,47.259z"/>
<path fill="#92531C" stroke="#231815" stroke-linecap="round" stroke-linejoin="round" d="M23.768,45.925
	c0,0-5.314-5.389-8.46-13.36l0.219-0.228c2.306-3.106,1.002-5.654,0.939-6.151c-0.173-1.379,0.12-2.843,0.12-2.843
	s0.458-2.357-2.404-2.385c-1.287-0.013-1.508,0.75-1.508,0.75l-2.496-2.276c0,0-1.973-2.032-4.135-0.915L1.51,20.83
	c0,0-1.438,1.022-0.883,3.122c0,0,0.351,0.715,0.372,1.486c0,0-0.235,1.351,0.237,2.67c0,0,0.4,0.79,0.285,1.594
	c0,0-0.314,2.292,1.342,4.316c0,0,7.094,9.256,20.467,16.65c0,0,0.099,3.032,0.532,7.516h19.436c0,0-0.023-4.233-0.122-8.537
	L23.768,45.925z"/>
<path fill="none" stroke="#231815" stroke-linecap="round" stroke-linejoin="round" d="M15.522,24.856c0,0,0.519,1.81-1.042,2.806
	c-1.559,0.991-3.561-0.345-2.694-2.515c0,0,0.74-1.623,0.889-3.438"/>
<path fill="none" stroke="#231815" stroke-linecap="round" stroke-linejoin="round" d="M10.434,31.804
	c3.386-0.59,2.756-3.792,2.756-3.792"/>
<path fill="#92531C" stroke="#231815" stroke-linecap="round" stroke-linejoin="round" d="M42.926,52.95l-1.735,0.416
	c-0.417-0.54-0.999-0.374-0.999-0.374c-0.623,0.082-0.747,0.832-0.747,0.832c-0.831-0.75-2.327,0.54-2.327,0.54
	c-0.745,0.622-0.538,1.412-0.538,1.412c0.293,1.619,1.368,2.407,1.368,2.407h4.488c0.789,0,1.371-0.707,1.371-0.707l3.111-1.912
	c1.871-1.162,0.705-2.781,0.705-2.781c-0.83-1.537-3.445-3.693-3.445-3.693l-5.274-1.082"/>
<path fill="#F8C058" stroke="#231815" stroke-linecap="round" stroke-linejoin="round" d="M20.342,36.05
	c0,0-2.951,5.552,0.422,8.816c3.374,3.27,11.542,7.416,24.019,5.338c3.97-0.663,6.252-2.936,6.501-7.592L38.209,30.937L20.342,36.05
	z"/>
<path fill="#92531C" stroke="#231815" stroke-linecap="round" stroke-linejoin="round" d="M58.5,10.963
	c0-3.989-3.235-7.224-7.227-7.224c-3.992,0-7.227,3.235-7.227,7.224c0,1.217,0.303,2.364,0.834,3.368
	c-3.678-1.58-8.072-1.758-10.286-1.73c1.176-1.285,1.895-2.995,1.895-4.876c0-3.992-3.235-7.225-7.228-7.225
	c-3.989,0-7.225,3.233-7.225,7.225c0,3.238,2.128,5.978,5.066,6.898c-1.156,0.805-2.251,1.969-2.931,3.641
	c-2.036,4.993-3.499,11.032-5.311,19.128c0,0,10.108-3.302,18.59-4.99c0,0,6.936,4.676,14.379,11.582c0,0,1.031-8.072,0.145-20.36
	c0,0-0.051-2.754-2.194-5.588c0.479,0.102,0.979,0.153,1.492,0.153C55.265,18.188,58.5,14.957,58.5,10.963z"/>
<path fill="#E50012" stroke="#231815" stroke-linecap="round" stroke-linejoin="round" d="M27.728,38.374
	c-0.195,2.997-0.013,8.387,0.079,10.658c3.255,1.183,7.39,1.938,12.363,1.679l2.259-9.596
	C37.073,40.367,27.728,38.374,27.728,38.374z"/>
<path fill="#FFFFFF" stroke="#231815" stroke-linecap="round" stroke-linejoin="round" d="M34.852,23.825l-8.089-5.141
	c0,0-0.323,3.126,2.392,4.945C31.981,25.521,34.852,23.825,34.852,23.825z"/>
<path fill="#FFFFFF" stroke="#231815" stroke-linecap="round" stroke-linejoin="round" d="M41.17,25.15l8.974-2.165
	c0,0-0.585,2.9-3.623,3.715C43.359,27.544,41.17,25.15,41.17,25.15z"/>
<path fill="#FFFFFF" stroke="#231815" stroke-linecap="round" stroke-linejoin="round" d="M32.585,8.471
	c0,1.858-1.506,3.366-3.362,3.366c-1.86,0-3.365-1.507-3.365-3.366c0-1.855,1.505-3.364,3.365-3.364
	C31.08,5.107,32.585,6.616,32.585,8.471z"/>
<circle fill="#FFFFFF" stroke="#231815" stroke-linecap="round" stroke-linejoin="round" cx="50.899" cy="11.961" r="3.365"/>
<path fill="#FFF000" stroke="#231815" stroke-linecap="round" stroke-linejoin="round" d="M30.593,51.246
	c0,0-0.033,4.051,0.277,6.938h6.513c0,0-0.126-2.429-3.801-2.619c0,0,3.156-0.08,3.031-2.365
	C36.448,50.156,30.593,51.246,30.593,51.246z"/>
<path fill="#92531C" stroke="#231815" stroke-linecap="round" stroke-linejoin="round" d="M32.29,52.607c0,0,0,1.025,0.045,1.694
	c0,0,2.4,0.081,2.354-0.962C34.638,52.201,32.29,52.607,32.29,52.607z"/>
<path fill="#92531C" stroke="#231815" stroke-linecap="round" stroke-linejoin="round" d="M32.604,56.833
	c0,0,0.045,0.806,0.105,1.35h2.805C35.514,58.183,35.037,56.677,32.604,56.833z"/>
</svg>
